<?xml version="1.0" standalone="no"?>
<!DOCTYPE svg PUBLIC "-//W3C//DTD SVG 20010904//EN"
 "http://www.w3.org/TR/2001/REC-SVG-20010904/DTD/svg10.dtd">
<svg version="1.0" xmlns="http://www.w3.org/2000/svg"
 width="1200.000000pt" height="1200.000000pt" viewBox="0 0 1200.000000 1200.000000"
 preserveAspectRatio="xMidYMid meet">
<metadata>
Created by potrace 1.11, written by Peter Selinger 2001-2013
</metadata>
<g transform="translate(0.000000,1200.000000) scale(0.100000,-0.100000)"
fill="#000000" stroke="none">
<path d="M0 6000 l0 -6000 6000 0 6000 0 0 6000 0 6000 -6000 0 -6000 0 0
-6000z m4940 3686 c0 -9 -40 -13 -46 -5 -3 5 6 9 20 9 14 0 26 -2 26 -4z m-80
-20 c0 -3 -4 -8 -10 -11 -5 -3 -10 -1 -10 4 0 6 5 11 10 11 6 0 10 -2 10 -4z
m-60 -26 c0 -5 -12 -12 -27 -16 -27 -5 -51 -15 -163 -68 -31 -14 -76 -32 -100
-41 -24 -9 -63 -27 -86 -40 -24 -14 -48 -25 -54 -25 -6 0 -18 -7 -26 -15 -9
-8 -27 -18 -42 -21 -15 -4 -34 -12 -42 -19 -8 -7 -30 -18 -47 -26 -18 -8 -33
-17 -33 -21 0 -5 -9 -8 -20 -8 -11 0 -20 -4 -20 -8 0 -5 -20 -19 -45 -32 -25
-13 -45 -27 -45 -32 0 -4 -9 -8 -19 -8 -11 0 -21 -3 -23 -7 -4 -11 -86 -63
-98 -63 -5 0 -10 -4 -10 -8 0 -5 -12 -15 -27 -23 -16 -8 -33 -18 -39 -24 -6
-5 -23 -19 -38 -30 -16 -11 -34 -26 -41 -32 -8 -7 -18 -13 -24 -13 -6 0 -11
-4 -11 -10 0 -5 -6 -10 -12 -10 -7 0 -33 -19 -58 -41 -25 -23 -69 -59 -98 -81
-29 -22 -56 -46 -59 -54 -3 -8 -10 -14 -16 -14 -12 0 -4 8 -184 -168 -79 -76
-143 -141 -143 -144 0 -9 -49 -58 -58 -58 -4 0 -22 -21 -41 -45 -18 -25 -37
-45 -42 -45 -5 0 -9 -7 -9 -15 0 -8 -9 -20 -20 -27 -11 -7 -20 -17 -20 -23 -1
-11 -50 -50 -50 -40 0 7 37 62 55 81 5 7 19 25 30 40 11 16 33 43 50 60 16 17
41 47 54 65 13 19 48 59 78 89 86 89 161 164 175 176 7 6 22 22 34 35 11 13
41 41 67 62 25 21 67 58 94 82 26 25 52 45 56 45 4 0 19 11 33 25 14 14 29 25
33 25 4 0 21 12 37 28 16 15 42 33 57 41 15 8 27 18 27 23 0 4 5 8 12 8 6 0
20 7 30 17 19 17 38 29 96 58 17 10 32 21 32 26 0 5 7 9 15 9 8 0 15 5 15 10
0 6 9 10 19 10 11 0 21 3 23 8 5 11 127 82 142 82 6 0 16 4 22 9 15 16 165 91
180 91 8 0 14 5 14 10 0 6 7 10 16 10 15 0 66 20 106 41 10 5 25 9 33 9 8 0
15 5 15 10 0 6 8 10 18 10 11 0 33 7 50 15 31 16 52 22 105 32 15 3 27 9 27
14 0 5 9 9 20 9 11 0 20 -4 20 -10z m560 -1150 c0 -5 18 -13 40 -16 32 -5 40
-11 40 -28 0 -15 3 -17 8 -8 9 14 38 7 60 -15 8 -7 17 -11 22 -8 4 3 14 -3 21
-12 10 -12 10 -14 2 -9 -7 4 -13 3 -13 -2 0 -16 23 -30 55 -34 17 -2 29 -8 28
-15 -2 -8 13 -15 37 -19 22 -4 40 -10 40 -15 0 -5 -4 -9 -10 -9 -21 0 -9 -18
20 -30 18 -8 30 -20 30 -31 0 -11 5 -19 10 -19 6 0 10 -7 10 -15 0 -8 9 -20
19 -27 11 -6 17 -18 13 -26 -3 -8 1 -20 9 -26 9 -6 18 -19 22 -28 3 -9 18 -18
34 -20 22 -2 29 -9 31 -29 2 -17 11 -29 24 -32 11 -3 17 -10 13 -16 -3 -6 -1
-11 4 -11 6 0 11 5 11 10 0 6 4 10 8 10 15 0 9 -29 -6 -35 -11 -4 -12 -9 -3
-19 6 -7 9 -21 5 -30 -4 -10 0 -18 10 -22 8 -3 22 -18 29 -32 8 -15 22 -40 31
-57 9 -16 16 -42 16 -57 0 -16 5 -28 11 -28 7 0 8 -11 4 -30 -4 -19 -3 -30 4
-30 6 0 11 -9 11 -19 0 -10 7 -22 16 -25 14 -5 14 -9 3 -23 -11 -13 -11 -17
-1 -20 6 -3 12 -17 12 -31 0 -15 7 -36 15 -46 18 -24 20 -66 3 -66 -6 0 -4 -8
6 -19 14 -15 19 -41 21 -112 2 -69 6 -95 18 -104 11 -8 12 -16 6 -28 -6 -11
-6 -24 1 -36 13 -25 13 -64 0 -56 -5 3 -10 2 -10 -4 0 -5 6 -12 13 -14 8 -4 9
-8 2 -14 -16 -12 -18 -76 -3 -71 7 3 14 14 16 26 2 12 8 22 13 22 12 0 12 -37
0 -42 -14 -5 3 -74 17 -70 8 1 12 -17 12 -57 0 -33 5 -63 10 -66 6 -3 10 -15
10 -26 0 -12 7 -19 20 -19 22 0 26 -10 9 -27 -14 -14 13 -63 35 -63 8 0 16 -7
20 -15 3 -9 0 -15 -10 -15 -11 0 -14 -8 -12 -27 2 -22 10 -29 38 -34 19 -4 48
-15 64 -23 16 -8 34 -12 39 -9 6 3 7 1 3 -6 -4 -6 -11 -9 -16 -6 -5 3 -11 1
-15 -5 -3 -5 1 -10 9 -10 8 0 20 -8 25 -18 5 -10 23 -19 43 -20 37 -3 45 -9
50 -36 3 -21 60 -43 66 -26 2 6 12 10 22 10 11 0 24 8 29 18 9 14 11 11 10
-18 -1 -19 -1 -39 1 -45 7 -28 -4 -34 -67 -38 -71 -5 -115 -13 -148 -27 -11
-5 -42 -11 -70 -14 -27 -3 -75 -11 -105 -16 -30 -6 -80 -15 -110 -19 -30 -5
-82 -14 -115 -20 -33 -7 -96 -18 -140 -26 -44 -7 -87 -16 -95 -18 -8 -3 -49
-10 -90 -17 -41 -7 -84 -16 -95 -20 -11 -5 -36 -11 -55 -14 -19 -2 -55 -9 -80
-15 -86 -21 -165 -30 -174 -21 -12 12 -14 2041 -2 2243 6 115 11 147 22 147 8
0 14 -4 14 -10z m293 -117 c-7 -2 -19 -2 -25 0 -7 3 -2 5 12 5 14 0 19 -2 13
-5z m-2764 -151 c-39 -49 -62 -46 -25 3 17 23 35 39 40 34 5 -4 -2 -21 -15
-37z m-73 -88 c-19 -19 -21 -11 -4 16 7 11 14 16 16 10 2 -5 -4 -17 -12 -26z
m2227 -238 c8 3 17 -1 20 -9 4 -10 16 -13 38 -11 24 3 36 -1 46 -16 8 -11 25
-20 39 -20 14 0 24 -5 23 -12 -2 -20 12 -58 22 -58 5 0 9 -15 9 -32 -1 -18 0
-387 2 -819 l3 -787 -50 -11 c-27 -7 -66 -16 -85 -21 -87 -22 -177 -40 -202
-40 -15 0 -30 -4 -33 -10 -3 -5 -22 -10 -41 -10 -19 0 -34 -4 -34 -10 0 -5
-18 -10 -39 -10 -22 0 -43 -4 -46 -10 -3 -5 -16 -10 -27 -10 -12 0 -35 -4 -52
-9 -79 -25 -193 -53 -301 -76 -16 -4 -39 -10 -50 -15 -21 -9 -59 -18 -113 -27
-18 -3 -35 -9 -38 -14 -3 -5 -15 -9 -28 -9 -24 0 -76 -21 -76 -31 0 -3 25 -19
55 -34 30 -16 55 -33 55 -37 0 -4 6 -8 13 -8 7 0 23 -9 35 -20 12 -11 26 -20
32 -20 6 0 17 -6 25 -12 33 -32 56 -48 70 -48 8 0 15 -4 15 -8 0 -5 18 -16 40
-26 22 -10 40 -22 40 -27 0 -5 7 -9 15 -9 8 0 15 -4 15 -10 0 -5 6 -10 13 -10
7 0 23 -9 35 -20 12 -11 23 -20 26 -20 6 0 129 -72 136 -80 3 -3 17 -11 33
-19 15 -8 27 -18 27 -23 0 -4 7 -8 15 -8 8 0 15 -4 15 -9 0 -5 8 -11 18 -14
24 -8 96 -50 100 -59 2 -5 10 -8 17 -8 7 0 16 -7 19 -16 5 -12 -8 -31 -42 -63
-84 -81 -142 -131 -152 -131 -6 0 -10 -4 -10 -8 0 -10 -139 -82 -157 -82 -7 0
-13 -4 -13 -9 0 -8 -9 -11 -100 -32 -72 -17 -171 -22 -183 -10 -6 6 -24 11
-39 11 -16 0 -36 4 -46 9 -9 5 -48 24 -87 42 -38 18 -83 42 -98 53 -43 32
-197 186 -197 197 0 6 -10 20 -22 33 -39 40 -54 61 -84 117 -16 30 -32 56 -36
57 -5 2 -8 10 -8 18 0 8 -4 14 -10 14 -5 0 -10 9 -10 19 0 11 -4 21 -8 23 -4
2 -21 30 -37 63 -30 64 -53 88 -70 76 -5 -5 -37 -16 -70 -26 -33 -10 -64 -22
-69 -27 -13 -11 -47 -10 -66 2 -13 8 -12 11 4 23 18 13 18 14 -8 19 -14 3 -29
1 -32 -4 -6 -10 -24 -1 -24 13 0 5 18 9 40 9 22 0 40 5 40 10 0 6 9 10 20 10
22 0 27 -16 8 -23 -16 -5 -10 -12 17 -21 19 -5 21 -3 17 31 -4 31 -2 35 13 29
29 -11 55 3 55 30 0 25 15 33 23 12 2 -7 2 1 0 17 -6 38 -25 97 -35 109 -4 6
-8 18 -8 28 0 10 -4 26 -9 36 -5 9 -17 46 -26 82 -9 36 -21 73 -26 82 -5 10
-9 31 -9 47 0 17 -4 33 -10 36 -5 3 -10 19 -10 36 0 16 5 29 10 29 6 0 10 -3
10 -7 0 -5 20 -17 45 -28 25 -11 45 -23 45 -27 0 -5 6 -8 13 -8 7 0 23 -9 35
-20 12 -11 24 -20 27 -20 4 0 26 -13 50 -30 24 -16 48 -30 54 -30 5 0 16 -6
23 -12 7 -7 27 -20 43 -28 17 -8 39 -23 49 -32 11 -10 26 -18 33 -18 7 0 13
-4 13 -9 0 -5 8 -11 18 -15 9 -3 41 -19 71 -36 60 -33 61 -34 61 -21 0 5 -9
13 -20 16 -11 3 -20 12 -20 20 0 7 -8 16 -17 18 -10 2 -8 3 5 2 13 -1 30 4 38
12 8 8 14 10 14 4 0 -25 20 -9 21 17 0 16 3 21 6 12 12 -30 63 -54 63 -30 0 6
-7 10 -15 10 -8 0 -15 4 -15 9 0 15 23 26 55 26 23 0 31 5 33 23 4 23 22 31
22 10 0 -7 5 -5 11 5 5 9 18 17 28 17 19 0 36 25 32 48 -1 7 10 12 29 12 20 0
30 -5 30 -15 0 -8 5 -15 10 -15 6 0 10 6 10 14 0 8 -4 18 -10 21 -5 3 -10 12
-10 18 0 7 7 4 14 -5 21 -28 36 -21 36 17 0 34 12 46 25 25 9 -14 35 7 35 26
0 8 5 14 10 14 6 0 10 -8 10 -17 0 -14 3 -14 20 5 11 12 20 30 20 42 0 11 5
20 10 20 6 0 10 -4 10 -10 0 -15 17 -12 39 6 11 10 17 22 15 29 -5 13 29 78
37 71 2 -2 4 9 4 25 0 16 -4 29 -8 29 -12 0 -37 27 -37 39 0 6 5 11 10 11 6 0
10 -4 10 -10 0 -11 53 -40 75 -40 8 0 15 5 15 11 0 6 -7 9 -15 5 -9 -3 -15 0
-15 9 0 8 -4 15 -10 15 -5 0 -10 7 -10 15 0 16 16 21 22 6 7 -19 42 -16 46 4
4 16 2 17 -10 8 -11 -10 -18 -8 -31 7 -16 19 -14 50 4 50 5 0 14 11 21 24 11
26 40 44 46 28 2 -6 13 -5 27 2 25 11 33 26 15 26 -5 0 -10 6 -10 13 0 8 -9
22 -20 32 -19 18 -20 17 -20 -3 0 -12 5 -22 10 -22 6 0 10 -9 10 -20 0 -17 -3
-19 -19 -11 -17 9 -19 21 -17 86 2 71 -5 107 -20 93 -3 -4 -12 -1 -19 5 -9 9
-10 16 -2 25 8 10 7 16 -4 23 -10 6 -10 9 -1 9 6 0 12 7 12 15 0 11 -11 15
-40 15 -35 0 -40 3 -40 23 1 20 2 20 11 5 12 -22 29 -23 29 -3 0 8 5 15 10 15
6 0 10 -4 10 -10 0 -5 4 -10 9 -10 12 0 21 49 10 56 -4 2 -6 11 -2 19 3 8 0
15 -6 15 -6 0 -11 -13 -11 -30 0 -34 -5 -37 -27 -14 -10 10 -12 18 -6 22 14
10 23 41 13 47 -5 3 -13 -3 -19 -12 -9 -15 -12 -16 -20 -3 -10 15 -9 70 3 88
3 6 1 12 -5 14 -7 2 -14 31 -17 64 -3 38 -11 65 -22 76 -21 20 -16 68 7 68 11
0 14 7 10 21 -4 15 -2 19 8 15 8 -3 17 -1 20 4 3 5 -10 12 -29 15 -26 5 -33
11 -28 23 4 10 7 12 10 4 6 -19 22 -14 22 7 0 11 6 22 13 25 10 5 10 7 0 12
-15 7 -17 44 -3 44 6 0 10 8 10 18 0 10 5 23 11 29 8 8 8 17 1 30 -16 29 25
73 67 73 27 0 31 3 30 28 0 15 -3 21 -6 15 -6 -15 -33 -17 -33 -3 0 6 5 10 10
10 6 0 14 10 18 21 8 20 9 19 24 -11 11 -23 18 -28 24 -19 4 7 3 14 -4 17 -7
2 -12 11 -12 20 0 15 2 15 10 2 7 -11 10 -5 11 25 0 22 3 35 5 30 2 -6 23 -9
45 -7 40 4 41 5 35 34 -5 25 -4 28 8 19 11 -9 15 -8 20 4 3 9 11 13 17 9 6 -3
15 -1 19 6 5 7 23 15 41 17 18 2 37 9 41 16 5 8 11 8 16 2 10 -14 92 -19 92
-6 0 20 19 11 22 -10 2 -12 14 -26 28 -31 l24 -9 -22 24 c-15 16 -20 30 -16
42 7 17 8 17 15 -3 5 -13 14 -19 22 -16z m-437 -102 c-4 -9 -9 -15 -11 -12 -3
3 -3 13 1 22 4 9 9 15 11 12 3 -3 3 -13 -1 -22z m-130 -231 c-10 -10 -19 5
-10 18 6 11 8 11 12 0 2 -7 1 -15 -2 -18z m-40 -30 c-10 -10 -19 5 -10 18 6
11 8 11 12 0 2 -7 1 -15 -2 -18z m12 -344 c-2 -6 -8 -10 -13 -10 -5 0 -11 4
-13 10 -2 6 4 11 13 11 9 0 15 -5 13 -11z m32 -209 c0 -5 -2 -10 -4 -10 -3 0
-8 5 -11 10 -3 6 -1 10 4 10 6 0 11 -4 11 -10z m20 -170 c0 -5 -4 -10 -10 -10
-5 0 -10 5 -10 10 0 6 5 10 10 10 6 0 10 -4 10 -10z m40 -71 c0 -11 -4 -17
-10 -14 -5 3 -10 13 -10 21 0 8 5 14 10 14 6 0 10 -9 10 -21z m4499 4 c-3 -21
2 -33 15 -33 17 0 31 -79 16 -94 -7 -7 -10 2 -10 30 0 23 -3 43 -6 47 -8 8
-34 -3 -34 -15 0 -5 5 -6 10 -3 6 3 10 -1 10 -9 0 -24 -17 -28 -23 -5 -7 26 3
89 14 89 5 0 8 -3 8 -7z m-4459 -43 c0 -16 -4 -30 -10 -30 -11 0 -14 43 -3 53
11 12 13 8 13 -23z m4570 5 c10 -12 10 -15 -4 -15 -9 0 -16 7 -16 15 0 8 2 15
4 15 2 0 9 -7 16 -15z m539 -50 c0 -37 -13 -17 -23 35 -6 32 -5 33 8 15 9 -11
15 -33 15 -50z m-410 -12 c0 -33 -1 -35 -9 -15 -8 20 -4 52 6 52 2 0 4 -17 3
-37z m-154 16 c11 -17 0 -20 -21 -4 -17 13 -17 14 -2 15 9 0 20 -5 23 -11z
m385 -36 c0 -7 -4 -13 -10 -13 -5 0 -10 12 -10 28 0 21 2 24 10 12 5 -8 10
-21 10 -27z m-162 13 c-7 -8 -17 -12 -22 -9 -4 3 -2 9 5 14 22 13 31 11 17 -5z
m-127 -59 c-8 -8 -11 -7 -11 4 0 9 3 19 7 23 4 4 9 2 11 -4 3 -7 -1 -17 -7
-23z m39 -4 c-1 -24 -2 -26 -11 -10 -5 9 -7 22 -4 27 10 17 15 11 15 -17z
m-140 2 c0 -2 -7 -5 -15 -9 -9 -3 -15 0 -15 9 0 9 6 12 15 9 8 -4 15 -7 15 -9z
m-990 -15 c30 -1 32 -2 16 -11 -13 -8 -25 -8 -41 -1 -18 8 -25 8 -29 -1 -2 -7
-5 -1 -5 13 -1 19 2 21 11 12 7 -7 28 -12 48 -12z m1540 10 c0 -5 -7 -10 -15
-10 -8 0 -15 5 -15 10 0 6 7 10 15 10 8 0 15 -4 15 -10z m-1759 -22 c3 -5 18
-4 32 3 21 10 32 9 59 -4 l33 -17 -76 0 c-67 0 -77 2 -82 19 -4 15 -1 18 12
13 9 -3 19 -9 22 -14z m-131 2 c0 -5 -10 -10 -22 -10 -17 0 -19 -3 -11 -11 9
-9 19 -9 40 0 42 17 72 21 78 10 4 -5 -5 -9 -19 -9 -14 0 -26 -4 -26 -9 0 -5
-55 -12 -122 -15 -68 -3 -166 -10 -218 -15 -190 -20 -250 -23 -250 -15 0 19
17 29 50 30 217 7 267 10 263 18 -3 4 13 6 35 3 22 -4 43 -3 46 0 11 11 40 13
46 3 3 -6 21 -1 40 10 38 21 70 26 70 10z m618 3 c-26 -2 -71 -2 -100 0 -29 2
-8 3 47 3 55 0 79 -1 53 -3z m697 -13 c4 -6 10 -8 15 -5 4 3 13 -2 20 -10 11
-13 6 -15 -34 -15 -31 0 -45 4 -43 13 4 24 31 35 42 17z m95 -5 c0 -8 -7 -15
-15 -15 -26 0 -18 20 13 29 1 1 2 -6 2 -14z m-4690 -5 c0 -5 -4 -10 -10 -10
-5 0 -10 5 -10 10 0 6 5 10 10 10 6 0 10 -4 10 -10z m4747 -2 c3 6 9 12 15 12
6 0 6 -6 -2 -15 -16 -20 -60 -20 -60 0 0 13 3 13 21 3 17 -10 23 -10 26 0z
m221 -18 c54 0 81 -4 72 -9 -24 -14 -167 -8 -182 8 -11 12 -10 13 5 7 10 -3
58 -6 105 -6z m-2510 -17 c8 -7 18 -11 23 -7 5 3 28 7 51 9 22 3 50 7 60 11
14 4 21 0 25 -15 6 -24 23 -28 23 -6 0 12 10 15 40 13 39 -2 53 -19 28 -34 -6
-4 -45 -11 -87 -15 -42 -5 -114 -13 -161 -19 -47 -5 -109 -12 -138 -15 l-53
-5 5 41 c5 49 14 59 29 38 7 -9 17 -14 23 -12 6 2 15 -6 18 -19 5 -17 9 -19
12 -8 16 45 26 55 57 56 18 0 38 -6 45 -13z m2637 7 c3 -5 1 -10 -4 -10 -6 0
-11 5 -11 10 0 6 2 10 4 10 3 0 8 -4 11 -10z m95 -20 c0 -5 -2 -10 -4 -10 -3
0 -8 5 -11 10 -3 6 -1 10 4 10 6 0 11 -4 11 -10z m-5250 -130 c0 -5 -2 -10 -4
-10 -3 0 -8 5 -11 10 -3 6 -1 10 4 10 6 0 11 -4 11 -10z m-114 -77 c-11 -11
-19 6 -11 24 8 17 8 17 12 0 3 -10 2 -21 -1 -24z m4365 -30 c-5 -10 -15 -38
-21 -63 -7 -25 -16 -54 -20 -65 -4 -11 -16 -47 -25 -80 -20 -74 -51 -159 -88
-245 -66 -156 -117 -260 -149 -307 -15 -23 -28 -46 -28 -52 0 -6 -3 -11 -7
-11 -5 0 -17 -18 -27 -41 -11 -22 -32 -53 -48 -69 -15 -17 -28 -34 -28 -39 0
-12 -165 -179 -211 -213 -44 -33 -151 -88 -171 -88 -8 0 -18 -4 -23 -9 -30
-28 -305 -28 -305 0 0 5 -13 9 -30 9 -16 0 -30 5 -30 10 0 6 -9 10 -20 10 -11
0 -20 4 -20 8 0 4 -16 14 -35 21 -40 14 -124 70 -172 115 -102 95 -124 119
-121 133 3 14 44 42 116 79 17 9 32 20 32 25 0 5 7 9 15 9 8 0 15 5 15 10 0 6
6 10 13 10 7 0 23 9 35 20 12 11 28 20 37 20 8 0 15 4 15 8 0 4 25 21 55 37
30 17 55 33 55 38 0 4 6 7 13 7 7 0 23 9 35 20 12 11 26 20 32 20 5 0 10 3 10
8 0 4 27 20 60 37 33 16 60 33 60 37 0 4 7 8 15 8 8 0 15 5 15 10 0 6 7 10 15
10 8 0 15 5 15 10 0 6 7 10 15 10 8 0 15 5 15 10 0 6 6 10 13 10 7 0 22 8 33
18 11 9 37 26 59 37 22 11 49 28 59 38 11 9 26 17 33 17 7 0 13 5 13 10 0 6 7
10 15 10 8 0 15 5 15 10 0 6 6 10 13 10 7 0 22 8 33 18 11 9 37 26 59 37 22
11 49 28 59 38 11 9 26 17 33 17 7 0 13 5 13 10 0 6 6 10 13 10 7 0 23 9 35
20 12 11 25 20 31 20 5 0 11 3 13 8 4 9 76 51 101 59 9 3 17 9 17 14 0 5 5 9
10 9 6 0 20 9 32 20 12 11 28 20 35 20 7 0 13 5 13 10 0 6 5 10 10 10 12 0 94
52 98 63 2 4 12 7 23 7 15 0 17 -4 10 -17z m-5281 -499 c0 -14 -3 -14 -15 -4
-8 7 -15 14 -15 16 0 2 7 4 15 4 8 0 15 -7 15 -16z m-218 -96 c-8 -8 -17 -8
-34 0 -22 10 -21 11 12 11 26 1 31 -2 22 -11z m-116 -76 c-4 -3 -11 0 -16 8
-15 24 -11 33 6 15 9 -9 13 -19 10 -23z m67 17 c12 -17 19 -19 36 -10 12 6 30
16 41 21 11 6 29 10 40 10 11 0 20 -4 20 -10 0 -5 -13 -10 -30 -10 -16 0 -30
-4 -30 -10 0 -5 -11 -10 -25 -10 -14 0 -25 -6 -25 -12 -1 -7 -10 -2 -20 11
l-20 23 0 -26 c0 -21 -5 -26 -22 -25 -18 0 -19 2 -7 7 11 5 15 16 13 35 -3 32
9 35 29 6z m-185 -46 c0 -21 2 -49 5 -63 4 -14 4 -19 1 -13 -4 10 -9 9 -21 -2
-20 -21 -33 -19 -33 5 0 22 -16 27 -22 8 -3 -8 -9 -8 -24 0 -12 7 -14 12 -5
12 11 0 11 3 1 15 -10 12 -10 19 -2 27 9 9 12 9 12 0 0 -7 5 -12 10 -12 6 0 9
3 9 8 -4 21 2 42 12 42 7 0 9 -10 7 -25 -3 -14 -1 -28 3 -31 5 -3 9 8 9 24 0
32 7 42 27 42 9 0 12 -12 11 -37z m-98 18 c0 -5 -5 -11 -11 -13 -6 -2 -13 -21
-15 -42 -2 -37 -19 -60 -36 -50 -13 8 -9 -41 5 -55 10 -10 8 -12 -8 -9 -17 3
-20 10 -17 48 2 25 10 50 18 56 8 6 14 19 14 29 0 10 8 24 18 31 20 16 32 18
32 5z m-113 -113 c-3 -8 -6 -5 -6 6 -1 11 2 17 5 13 3 -3 4 -12 1 -19z m156
-2 c24 -18 21 -26 -8 -26 -14 0 -25 5 -25 10 0 6 -6 10 -12 9 -26 -3 -39 1
-33 11 9 14 57 12 78 -4z m-33 -38 c0 -13 -32 -6 -37 9 -3 7 3 9 16 6 12 -3
21 -10 21 -15z m-117 -21 c4 -10 -2 -13 -19 -9 -13 2 -24 8 -24 13 0 14 37 10
43 -4z m-183 -37 c0 -5 -2 -10 -4 -10 -3 0 -8 5 -11 10 -3 6 -1 10 4 10 6 0
11 -4 11 -10z m70 -25 c-32 -19 -44 -19 -28 0 7 8 22 14 33 14 18 0 17 -1 -5
-14z m6302 -45 c3 -16 1 -30 -4 -30 -4 0 -8 14 -8 30 0 17 2 30 4 30 2 0 6
-13 8 -30z m-19 -87 c3 -19 1 -33 -5 -33 -5 0 -7 -12 -3 -30 4 -19 3 -30 -4
-30 -6 0 -11 -11 -11 -25 0 -14 -7 -42 -15 -62 -8 -19 -15 -46 -15 -59 0 -13
-4 -24 -10 -24 -5 0 -10 -9 -10 -20 0 -11 -4 -28 -9 -38 -39 -77 -51 -106 -51
-123 0 -10 -4 -19 -10 -19 -5 0 -10 -5 -10 -12 0 -18 -33 -88 -42 -88 -4 0 -8
-7 -8 -15 0 -8 -13 -37 -30 -65 -16 -28 -30 -55 -30 -60 0 -6 -4 -10 -10 -10
-5 0 -10 -7 -10 -15 0 -18 -68 -128 -81 -133 -5 -2 -9 -10 -9 -19 0 -8 -6 -20
-12 -28 -27 -28 -48 -55 -62 -82 -8 -15 -24 -38 -35 -50 -12 -12 -21 -25 -21
-29 0 -3 -12 -18 -28 -32 -15 -15 -40 -45 -57 -67 -38 -52 -308 -321 -360
-360 -22 -16 -52 -42 -67 -57 -14 -15 -29 -28 -32 -28 -6 0 -107 -70 -116 -80
-3 -4 -24 -17 -47 -30 -24 -13 -43 -27 -43 -31 0 -4 -9 -11 -21 -14 -11 -4
-40 -20 -64 -36 -24 -16 -48 -29 -54 -29 -6 0 -11 -5 -11 -11 0 -6 -6 -9 -14
-6 -8 3 -17 0 -20 -8 -3 -8 -13 -11 -27 -8 -15 4 -20 2 -15 -5 3 -6 2 -13 -4
-17 -5 -3 -10 -1 -10 4 0 6 -8 11 -17 12 -14 0 -13 2 5 9 12 5 22 14 22 19 0
5 14 12 30 16 17 4 30 11 30 16 0 5 6 9 13 9 7 0 23 9 35 20 12 11 26 20 32
20 5 0 10 3 10 8 0 4 18 16 40 26 22 11 40 23 40 27 0 4 8 10 19 14 10 3 28
13 39 23 44 37 58 48 92 72 19 13 37 27 40 30 3 3 23 19 45 35 22 16 73 62
114 102 41 40 77 73 80 73 3 0 17 14 31 31 14 16 60 66 103 109 42 44 77 84
77 89 0 5 16 26 35 45 19 20 35 40 35 45 0 4 14 22 30 39 17 18 30 34 30 37 0
3 11 18 25 33 14 15 25 30 25 35 0 4 23 41 50 82 28 41 50 79 50 85 0 5 3 10
8 10 4 0 16 19 27 43 11 23 22 44 25 47 14 13 160 324 160 341 0 5 9 27 20 49
11 22 20 48 20 58 0 11 7 25 15 32 9 7 14 19 11 25 -5 13 15 79 27 91 4 4 7
21 7 37 0 38 6 32 13 -10z m-1524 -1887 c9 -10 8 -15 -3 -19 -16 -7 -26 1 -26
20 0 17 14 17 29 -1z m-44 -16 c-3 -5 -1 -10 6 -10 17 0 6 -10 -17 -14 -11 -3
-27 -7 -36 -11 -13 -5 -18 -2 -18 9 0 9 8 16 20 16 11 0 20 5 20 10 0 6 7 10
16 10 8 0 12 -4 9 -10z m-67 -49 c3 -8 -1 -12 -9 -9 -7 2 -15 10 -17 17 -3 8
1 12 9 9 7 -2 15 -10 17 -17z m-51 -7 c-3 -3 -12 -4 -19 -1 -8 3 -5 6 6 6 11
1 17 -2 13 -5z"/>
<path d="M5876 7994 c-9 -24 -7 -28 9 -14 17 14 20 30 6 30 -5 0 -12 -7 -15
-16z"/>
<path d="M6101 7304 c0 -11 3 -14 6 -6 3 7 2 16 -1 19 -3 4 -6 -2 -5 -13z"/>
<path d="M6190 6872 c0 -11 4 -23 8 -26 10 -6 9 30 -1 40 -4 4 -7 -2 -7 -14z"/>
<path d="M6510 6445 c0 -8 5 -15 10 -15 6 0 10 7 10 15 0 8 -4 15 -10 15 -5 0
-10 -7 -10 -15z"/>
<path d="M4833 7873 c-7 -2 -13 -12 -12 -21 0 -11 2 -12 6 -4 2 6 15 12 28 12
13 0 26 4 29 8 5 9 -32 13 -51 5z"/>
<path d="M4650 7750 c0 -5 5 -10 10 -10 6 0 10 5 10 10 0 6 -4 10 -10 10 -5 0
-10 -4 -10 -10z"/>
<path d="M4500 7249 c0 -5 5 -7 10 -4 6 3 10 8 10 11 0 2 -4 4 -10 4 -5 0 -10
-5 -10 -11z"/>
<path d="M4500 7155 c0 -8 5 -15 10 -15 6 0 10 7 10 15 0 8 -4 15 -10 15 -5 0
-10 -7 -10 -15z"/>
<path d="M4610 6950 c0 -5 5 -10 10 -10 6 0 10 5 10 10 0 6 -4 10 -10 10 -5 0
-10 -4 -10 -10z"/>
<path d="M4680 6610 c0 -5 5 -10 10 -10 6 0 10 5 10 10 0 6 -4 10 -10 10 -5 0
-10 -4 -10 -10z"/>
<path d="M4592 6585 c-9 -19 -7 -24 14 -34 13 -6 24 -7 24 -2 0 5 -6 12 -12
15 -10 5 -10 7 0 12 16 8 15 21 -2 27 -8 3 -18 -4 -24 -18z"/>
<path d="M3950 5970 c0 -5 5 -10 10 -10 6 0 10 5 10 10 0 6 -4 10 -10 10 -5 0
-10 -4 -10 -10z"/>
<path d="M3405 5690 c3 -5 11 -10 16 -10 6 0 7 5 4 10 -3 6 -11 10 -16 10 -6
0 -7 -4 -4 -10z"/>
<path d="M3308 5633 c7 -3 16 -2 19 1 4 3 -2 6 -13 5 -11 0 -14 -3 -6 -6z"/>
<path d="M6880 6482 c0 -14 48 -33 55 -22 4 6 3 15 0 20 -7 12 -55 13 -55 2z"/>
<path d="M7090 6480 c0 -5 5 -10 10 -10 6 0 10 5 10 10 0 6 -4 10 -10 10 -5 0
-10 -4 -10 -10z"/>
</g>
</svg>
